<svg xmlns="http://www.w3.org/2000/svg" version="1.1" xmlns:xlink="http://www.w3.org/1999/xlink" xmlns:svgjs="http://svgjs.dev/svgjs" viewBox="0 0 385.253843 110" width="385.253843" height="110"><circle id="i0e4d829c-9615-4ae2-8559-bdb69f0a7f89" r="6.5" stroke="#c56200" stroke-width="1.25" stroke-opacity="1" fill="#ffffff" fill-opacity="1" cx="119.503882" cy="47.8"></circle><text id="i266279f3-5d0e-42d6-820c-b2d00793cb56" font-family="Arial" font-size="9" font-weight="bold" font-style="normal" x="8.253857" y="31.000026" svgjs:data="{&quot;leading&quot;:&quot;1.3&quot;}">C</text><text id="ia868dca7-5493-49ba-9ab4-af8222773772" font-family="Arial" font-size="9" font-weight="bold" font-style="normal" x="25.999962" y="31.000029" svgjs:data="{&quot;leading&quot;:&quot;1.3&quot;}">G</text><text id="i1d83abee-39ad-43ff-8a37-0f551898be80" font-family="Arial" font-size="9" font-weight="bold" font-style="normal" x="44.253926" y="31.000017" svgjs:data="{&quot;leading&quot;:&quot;1.3&quot;}">A</text><text id="i8180ca56-848c-4aee-9943-0c66f32eea59" font-family="Arial" font-size="9" font-weight="bold" font-style="normal" x="61.999981" y="31.000024" svgjs:data="{&quot;leading&quot;:&quot;1.3&quot;}">G</text><text id="ie661939f-4b98-43e0-82c1-a6265320e886" font-family="Arial" font-size="9" font-weight="bold" font-style="normal" x="80.253848" y="31.000017" svgjs:data="{&quot;leading&quot;:&quot;1.3&quot;}">A</text><text id="i87b8aabc-b90e-45e2-b279-ea1a01056ff3" font-family="Arial" font-size="9" font-weight="bold" font-style="normal" x="97.999999" y="31.000029" svgjs:data="{&quot;leading&quot;:&quot;1.3&quot;}">G</text><text id="i0eae59e2-a85d-4615-b476-569a11eacd3a" font-family="Arial" font-size="9" font-weight="bold" font-style="normal" x="116.253917" y="31.000026" svgjs:data="{&quot;leading&quot;:&quot;1.3&quot;}">U</text><text id="ibe776046-c489-4c7f-899a-12c1507a70fe" font-family="Arial" font-size="9" font-weight="bold" font-style="normal" x="134.253862" y="30.99997" svgjs:data="{&quot;leading&quot;:&quot;1.3&quot;}">A</text><text id="i0552f3c4-e61c-4638-bdc3-3672a63b3cc5" font-family="Arial" font-size="9" font-weight="bold" font-style="normal" x="152.000027" y="31.000028" svgjs:data="{&quot;leading&quot;:&quot;1.3&quot;}">G</text><text id="id7605bb3-80fb-4a79-826d-cea1d8edf0af" font-family="Arial" font-size="9" font-weight="bold" font-style="normal" x="152.25386" y="70.599994" svgjs:data="{&quot;leading&quot;:&quot;1.3&quot;}">C</text><text id="i8cb9e68f-c15d-4a1b-90f5-95fa4d63251e" font-family="Arial" font-size="9" font-weight="bold" font-style="normal" x="134.000004" y="70.599992" svgjs:data="{&quot;leading&quot;:&quot;1.3&quot;}">G</text><text id="i66748959-a0b5-409e-9a8d-165bf3af3f77" font-family="Arial" font-size="9" font-weight="bold" font-style="normal" x="116.253843" y="70.599997" svgjs:data="{&quot;leading&quot;:&quot;1.3&quot;}">A</text><text id="id306318e-f42b-4137-9fd4-3453500faecd" font-family="Arial" font-size="9" font-weight="bold" font-style="normal" x="98.253832" y="70.599993" svgjs:data="{&quot;leading&quot;:&quot;1.3&quot;}">U</text><text id="ide6a7888-f680-4f43-9380-df8a76dc658e" font-family="Arial" font-size="9" font-weight="bold" font-style="normal" x="79.99999" y="70.600005" svgjs:data="{&quot;leading&quot;:&quot;1.3&quot;}">G</text><text id="i1f0e963c-53a9-4c23-b9de-3cc900032443" font-family="Arial" font-size="9" font-weight="bold" font-style="normal" x="62.00003" y="70.599999" svgjs:data="{&quot;leading&quot;:&quot;1.3&quot;}">G</text><text id="i2737487d-e727-425f-a855-1e249974d9a3" font-family="Arial" font-size="9" font-weight="bold" font-style="normal" x="44.253853" y="70.600005" svgjs:data="{&quot;leading&quot;:&quot;1.3&quot;}">U</text><text id="i26ba853f-4d9c-465a-ac34-643286754c57" font-family="Arial" font-size="9" font-weight="bold" font-style="normal" x="26.253917" y="70.599993" svgjs:data="{&quot;leading&quot;:&quot;1.3&quot;}">A</text><text id="i0e8945fd-43f8-4f4b-afe6-1c1b9e21d193" font-family="Arial" font-size="9" font-weight="bold" font-style="normal" x="8" y="70.599997" svgjs:data="{&quot;leading&quot;:&quot;1.3&quot;}">G</text><line x1="11.503881" y1="35.000012" x2="11.503881" y2="60.600012" id="if39c65ee-c622-4848-b28c-19868cd79329" stroke="#ff0000" stroke-width="6" stroke-opacity="1" stroke-linecap="butt" stroke-dasharray="none" opacity="1"></line><line x1="29.503881" y1="40.000012" x2="29.503881" y2="55.600012" id="i62d58aad-0ef8-4804-bfd4-6477820a8275" stroke="#228b22" stroke-width="1" stroke-opacity="1" stroke-linecap="butt" stroke-dasharray="none" opacity="1"></line><line x1="47.503883" y1="40.000012" x2="47.503883" y2="55.600012" id="i231e01cd-98f9-4d8c-a593-827857e1a4ae" stroke="#111dd6" stroke-width="1" stroke-opacity="1" stroke-linecap="butt" stroke-dasharray="none" opacity="1"></line><line x1="65.503883" y1="34.000012" x2="65.503883" y2="61.600012" id="i7f368550-ce83-42c8-8190-4bb5ca903e02" stroke="#000000" stroke-width="0" stroke-opacity="1" stroke-linecap="butt" stroke-dasharray="none" opacity="1"></line><line x1="83.503883" y1="34.000012" x2="83.503883" y2="61.600012" id="ib158abaf-6dcf-4950-8667-407ee11cebd9" stroke="#000000" stroke-width="0" stroke-opacity="1" stroke-linecap="butt" stroke-dasharray="none" opacity="1"></line><line x1="101.503883" y1="34.000012" x2="101.503883" y2="61.600012" id="i5fd69364-81fe-4155-9d1c-4fa846d6407f" stroke="#000000" stroke-width="0" stroke-opacity="1" stroke-linecap="butt" stroke-dasharray="none" opacity="1"></line><line x1="119.503883" y1="34.000012" x2="119.503883" y2="61.600012" id="i0db61525-d4a5-4807-b2b8-7f20a9f7bf61" stroke="#000000" stroke-width="0" stroke-opacity="1" stroke-linecap="butt" stroke-dasharray="none" opacity="1"></line><line x1="137.503876" y1="34.000012" x2="137.503876" y2="61.600012" id="i29d1f561-bd02-4839-8409-3a77962f87ae" stroke="#000000" stroke-width="0" stroke-opacity="1" stroke-linecap="butt" stroke-dasharray="none" opacity="1"></line><line x1="155.503876" y1="36.000012" x2="155.503876" y2="59.600012" id="i4f578456-9bba-4eb3-a509-5ec0668baa47" stroke="#000000" stroke-width="3" stroke-opacity="1" stroke-linecap="butt" stroke-dasharray="none" opacity="1"></line><path id="i5dba0e8d-4ec2-4389-af8e-f5782f030a4f" stroke="#000000" stroke-width="0" stroke-opacity="1" fill="#ffffff" fill-opacity="1" d="M 10.003882 62.8 A 0 0 90 0 1 10.003882 62.8 L 10.003882 32.8 A 0 0 90 0 1 10.003882 32.8 L 13.003882 32.8 A 0 0 90 0 1 13.003882 32.8 L 13.003882 62.8 A 0 0 90 0 1 13.003882 62.8 Z " stroke-dasharray=""></path><path id="i3eb5c219-fd8e-4bb9-b305-efc177251fae" stroke="#228b22" stroke-width="1" stroke-opacity="1" fill="#ffffff" fill-opacity="1" d="M 29.503882 36.75 L 32.753882 43.25 L 29.503882 43.25 L 26.253882 43.25 Z " stroke-dasharray=""></path><path id="i85305086-f768-47ba-b74b-5e9f13ddc371" stroke="#228b22" stroke-width="1" stroke-opacity="1" fill="#ffffff" fill-opacity="1" d="M 26.503882 58.6 A 0 0 90 0 1 26.503882 58.6 L 26.503882 52.6 A 0 0 90 0 1 26.503882 52.6 L 32.503882 52.6 A 0 0 90 0 1 32.503882 52.6 L 32.503882 58.6 A 0 0 90 0 1 32.503882 58.6 Z " stroke-dasharray=""></path><path id="i19923eb0-5667-40d7-95ac-53a81d1229a3" stroke="#111dd6" stroke-width="1" stroke-opacity="1" fill="#ffffff" fill-opacity="1" d="M 44.503882 43 A 0 0 90 0 1 44.503882 43 L 44.503882 37 A 0 0 90 0 1 44.503882 37 L 50.503882 37 A 0 0 90 0 1 50.503882 37 L 50.503882 43 A 0 0 90 0 1 50.503882 43 Z " stroke-dasharray=""></path><circle id="i7a071f72-08c2-4051-97f4-40f48358d091" r="3" stroke="#111dd6" stroke-width="1" stroke-opacity="1" fill="#ffffff" fill-opacity="1" cx="47.503882" cy="55.6"></circle><circle id="i2f31ab20-5fdd-409a-812e-20fdd739a0b2" r="6.5" stroke="#111dd6" stroke-width="0" stroke-opacity="1" fill="#9013fe" fill-opacity="1" cx="65.503882" cy="47.8"></circle><text id="i872cb4a0-8dfc-4631-a016-b44dfff3e214" font-family="Arial" font-size="8" font-weight="700" fill="#ffffff" fill-opacity="1" x="62.613257" y="50.55" svgjs:data="{&quot;leading&quot;:&quot;1.3&quot;}"><tspan dy="0" x="62.613257" svgjs:data="{&quot;newLined&quot;:true}">B</tspan></text><circle id="i59153bf3-22f6-48b4-80af-2a56f955487d" r="6.5" stroke="#000000" stroke-width="0" stroke-opacity="1" fill="#000000" fill-opacity="1" cx="83.503882" cy="47.8"></circle><text id="i10e88461-65fe-4c33-9d14-5f6c2b6302c4" font-family="Arial" font-size="8" font-weight="700" fill="#ffffff" fill-opacity="1" x="79.726538" y="50.55" svgjs:data="{&quot;leading&quot;:&quot;1.3&quot;}"><tspan dy="0" x="79.726538" svgjs:data="{&quot;newLined&quot;:true}">W</tspan></text><circle id="ib132d874-2d82-46fc-a740-08ea536419d5" r="6" stroke="#000000" stroke-width="1.5" stroke-opacity="1" fill="#ffffff" fill-opacity="1" cx="101.503882" cy="47.8"></circle><text id="i98a0adf7-190d-4e7b-a642-7e3668472675" font-family="Arial" font-size="8" font-weight="700" fill="#000000" fill-opacity="1" x="98.613257" y="50.55" svgjs:data="{&quot;leading&quot;:&quot;1.3&quot;}"><tspan dy="0" x="98.613257" svgjs:data="{&quot;newLined&quot;:true}">B</tspan></text><path id="i667c8ddf-897a-4fb0-9d38-3451822dc627" stroke="#c56200" stroke-width="1.25" stroke-opacity="1" fill="#ffffff" fill-opacity="1" d="M 116.003882 51.3 A 0 0 90 0 1 116.003882 51.3 L 116.003882 44.3 A 0 0 90 0 1 116.003882 44.3 L 123.003882 44.3 A 0 0 90 0 1 123.003882 44.3 L 123.003882 51.3 A 0 0 90 0 1 123.003882 51.3 Z " stroke-dasharray=""></path><path id="ib289b42e-f646-4b8d-bb17-c65bf729bb28" stroke="#111dd6" stroke-width="1.25" stroke-opacity="1" fill="#ffffff" fill-opacity="1" d="M 132.503882 52.8 A 0 0 90 0 1 132.503882 52.8 L 132.503882 42.8 A 0 0 90 0 1 132.503882 42.8 L 142.503882 42.8 A 0 0 90 0 1 142.503882 42.8 L 142.503882 52.8 A 0 0 90 0 1 142.503882 52.8 Z " stroke-dasharray=""></path><path id="i91af622c-8564-4992-8d77-65de572c5fc4" stroke="#228b22" stroke-width="0" stroke-opacity="1" fill="#111dd6" fill-opacity="1" d="M 137.503882 52.2 L 133.103882 43.4 L 137.503882 43.4 L 141.903882 43.4 Z " stroke-dasharray=""></path><text id="i51096f2e-2128-4b3c-981b-670b43180cf9" font-family="Arial" font-size="9" font-weight="bold" font-style="normal" x="170.253834" y="30.999973" svgjs:data="{&quot;leading&quot;:&quot;1.3&quot;}">A</text><text id="ib2678b14-89ee-48ec-82f3-98412b36bbfd" font-family="Arial" font-size="9" font-weight="bold" font-style="normal" x="188.253858" y="31.000029" svgjs:data="{&quot;leading&quot;:&quot;1.3&quot;}">A</text><text id="i95d6627b-bd34-46f0-99d2-4be00ea5b0e4" font-family="Arial" font-size="9" font-weight="bold" font-style="normal" x="205.99997" y="31.00003" svgjs:data="{&quot;leading&quot;:&quot;1.3&quot;}">G</text><text id="ibfc77bdc-72d5-45df-a769-943d53405f8b" font-family="Arial" font-size="9" font-weight="bold" font-style="normal" x="224.253933" y="30.999976" svgjs:data="{&quot;leading&quot;:&quot;1.3&quot;}">C</text><text id="iab41c65d-81de-4907-be1b-5ad7668ce785" font-family="Arial" font-size="9" font-weight="bold" font-style="normal" x="242.253913" y="31.000011" svgjs:data="{&quot;leading&quot;:&quot;1.3&quot;}">A</text><text id="i3813eef7-34fa-4766-a35f-45a26def8554" font-family="Arial" font-size="9" font-weight="bold" font-style="normal" x="259.999937" y="30.999981" svgjs:data="{&quot;leading&quot;:&quot;1.3&quot;}">G</text><text id="i83a5c36b-6295-41fd-a626-8699675237f2" font-family="Arial" font-size="9" font-weight="bold" font-style="normal" x="260.253843" y="70.600019" svgjs:data="{&quot;leading&quot;:&quot;1.3&quot;}">U</text><text id="i6c896757-a968-4544-b526-f269914de798" font-family="Arial" font-size="9" font-weight="bold" font-style="normal" x="242.253913" y="70.599989" svgjs:data="{&quot;leading&quot;:&quot;1.3&quot;}">C</text><text id="i415f5dab-07b8-4baf-955f-1ad084337e8d" font-family="Arial" font-size="9" font-weight="bold" font-style="normal" x="224.253933" y="70.600024" svgjs:data="{&quot;leading&quot;:&quot;1.3&quot;}">A</text><text id="i8346e34f-2079-4a6c-9b0c-3d8c28b39cf4" font-family="Arial" font-size="9" font-weight="bold" font-style="normal" x="205.99997" y="70.59997" svgjs:data="{&quot;leading&quot;:&quot;1.3&quot;}">G</text><text id="ieb8744fb-7da1-4b47-90bd-65f3dcb637fd" font-family="Arial" font-size="9" font-weight="bold" font-style="normal" x="187.999952" y="70.599971" svgjs:data="{&quot;leading&quot;:&quot;1.3&quot;}">G</text><text id="i891c6f55-7795-4fa8-92d6-c2e0db5106a9" font-family="Arial" font-size="9" font-weight="bold" font-style="normal" x="170.253834" y="70.600027" svgjs:data="{&quot;leading&quot;:&quot;1.3&quot;}">U</text><line x1="173.503876" y1="36.000012" x2="173.503876" y2="59.600012" id="i2f852c08-6626-4042-9dcc-c19c9379a8b5" stroke="#000000" stroke-width="1" stroke-opacity="1" stroke-linecap="butt" stroke-dasharray="none" opacity="1"></line><line x1="191.503876" y1="36.000012" x2="191.503876" y2="59.600012" id="i5e48f742-4887-4b65-8eca-d10a9317cec8" stroke="#228b22" stroke-width="2" stroke-opacity="1" stroke-linecap="butt" stroke-dasharray="none" opacity="1"></line><line x1="209.503876" y1="40.000012" x2="209.503876" y2="55.600012" id="i11eac3b7-fa82-4b31-b46e-5da6bcdd1f7f" stroke="#bd10e0" stroke-width="1" stroke-opacity="1" stroke-linecap="butt" stroke-dasharray="none" opacity="1"></line><line x1="227.503876" y1="40.000012" x2="227.503876" y2="55.600012" id="i8f4b1a9d-bc11-428b-a359-57d73e1c3dcd" stroke="#7ed321" stroke-width="1" stroke-opacity="1" stroke-linecap="butt" stroke-dasharray="none" opacity="1"></line><line x1="245.503876" y1="40.000012" x2="245.503876" y2="55.600012" id="i4e9689e9-ac79-41df-8f8b-0c0b212672b4" stroke="#000000" stroke-width="1" stroke-opacity="1" stroke-linecap="butt" stroke-dasharray="none" opacity="1"></line><line x1="263.503876" y1="34.000012" x2="263.503876" y2="61.600012" id="i48584af7-6c27-4523-9e4d-eaf4d176599a" stroke="#000000" stroke-width="0" stroke-opacity="1" stroke-linecap="butt" stroke-dasharray="none" opacity="1"></line><circle id="icdb9a0b6-76d4-44a8-a0d6-09320f6bb675" r="4" stroke="#c56200" stroke-width="0" stroke-opacity="1" fill="#228b22" fill-opacity="1" cx="191.503882" cy="47.8"></circle><path id="if8e6708e-e344-4efe-a42b-f58c4d1eb740" stroke="#ff0000" stroke-width="1" stroke-opacity="1" fill="#ffffff" fill-opacity="1" d="M 206.503882 58.6 A 0 0 90 0 1 206.503882 58.6 L 206.503882 52.6 A 0 0 90 0 1 206.503882 52.6 L 212.503882 52.6 A 0 0 90 0 1 212.503882 52.6 L 212.503882 58.6 A 0 0 90 0 1 212.503882 58.6 Z " stroke-dasharray=""></path><circle id="i3192ec38-b382-444b-b44f-884387f1b813" r="3" stroke="#111dd6" stroke-width="1" stroke-opacity="1" fill="#ffffff" fill-opacity="1" cx="209.503882" cy="40"></circle><text id="ia6a7d9a3-4f28-4179-913b-b1dcacd4119b" font-family="Arial" font-size="8" font-weight="700" fill="#000000" fill-opacity="1" x="212.613257" y="50.55" svgjs:data="{&quot;leading&quot;:&quot;1.3&quot;}"><tspan dy="0" x="212.613257" svgjs:data="{&quot;newLined&quot;:true}">B</tspan></text><circle id="i4fef341e-7c71-4a24-b468-54d09676920d" r="3.5" stroke="#111dd6" stroke-width="0" stroke-opacity="1" fill="#f5a623" fill-opacity="1" cx="227.503882" cy="40"></circle><path id="iffa7a629-f467-487f-8b2a-ba4f6e72a09b" stroke="#ff0000" stroke-width="0" stroke-opacity="1" fill="#c56200" fill-opacity="1" d="M 224.003882 59.1 A 0 0 90 0 1 224.003882 59.1 L 224.003882 52.1 A 0 0 90 0 1 224.003882 52.1 L 231.003882 52.1 A 0 0 90 0 1 231.003882 52.1 L 231.003882 59.1 A 0 0 90 0 1 231.003882 59.1 Z " stroke-dasharray=""></path><path id="i690e7739-3a34-433e-a464-0684259cc365" stroke="#ff0000" stroke-width="0" stroke-opacity="1" fill="#000000" fill-opacity="1" d="M 242.003882 43.5 A 0 0 90 0 1 242.003882 43.5 L 242.003882 36.5 A 0 0 90 0 1 242.003882 36.5 L 249.003882 36.5 A 0 0 90 0 1 249.003882 36.5 L 249.003882 43.5 A 0 0 90 0 1 249.003882 43.5 Z " stroke-dasharray=""></path><path id="i4626ec4f-3782-4f80-82d5-4afaace30868" stroke="#228b22" stroke-width="0" stroke-opacity="1" fill="#000000" fill-opacity="1" d="M 245.503882 59.1 L 242.003882 52.1 L 245.503882 52.1 L 249.003882 52.1 Z " stroke-dasharray=""></path><circle id="i918712d3-b372-48f5-a18e-6f162f798132" r="4" stroke="#228b22" stroke-width="1.25" stroke-opacity="1" fill="#ffffff" fill-opacity="1" cx="263.503882" cy="47.8"></circle><text id="ia8617c6b-141e-4d63-91f4-b4891e03f8bd" font-family="Arial" font-size="9" font-weight="bold" font-style="normal" x="278.253834" y="30.999997" svgjs:data="{&quot;leading&quot;:&quot;1.3&quot;}">A</text><text id="i794b0e89-0240-470c-ab28-81fb8e3adf02" font-family="Arial" font-size="9" font-weight="bold" font-style="normal" x="296.253858" y="30.999992" svgjs:data="{&quot;leading&quot;:&quot;1.3&quot;}">A</text><text id="ib6a090e8-7d98-4361-97c5-c0f75193d88e" font-family="Arial" font-size="9" font-weight="bold" font-style="normal" x="313.99997" y="30.999994" svgjs:data="{&quot;leading&quot;:&quot;1.3&quot;}">G</text><text id="ic9e5d371-9874-412a-8352-5a25dd2b891f" font-family="Arial" font-size="9" font-weight="bold" font-style="normal" x="332.253933" y="31" svgjs:data="{&quot;leading&quot;:&quot;1.3&quot;}">C</text><text id="i1509270f-df36-4ffd-a5b7-ed166b70c0d4" font-family="Arial" font-size="9" font-weight="bold" font-style="normal" x="350.253913" y="30.999974" svgjs:data="{&quot;leading&quot;:&quot;1.3&quot;}">A</text><text id="iae4eca1b-e63a-4d30-a167-f6d580e46e25" font-family="Arial" font-size="9" font-weight="bold" font-style="normal" x="367.999937" y="31.000006" svgjs:data="{&quot;leading&quot;:&quot;1.3&quot;}">G</text><text id="ie07aaf88-3e20-41d7-b8fc-7cec45342e65" font-family="Arial" font-size="9" font-weight="bold" font-style="normal" x="368.253843" y="70.599994" svgjs:data="{&quot;leading&quot;:&quot;1.3&quot;}">U</text><text id="icc6c8c1b-2aaa-48b9-92b9-b96b7d8430d2" font-family="Arial" font-size="9" font-weight="bold" font-style="normal" x="350.253913" y="70.600026" svgjs:data="{&quot;leading&quot;:&quot;1.3&quot;}">C</text><text id="i8cce37b4-07d8-4afd-b8a1-96fa093a065e" font-family="Arial" font-size="9" font-weight="bold" font-style="normal" x="332.253933" y="70.6" svgjs:data="{&quot;leading&quot;:&quot;1.3&quot;}">A</text><text id="i2dcc642f-f7b9-4be3-8e2a-71ea41082672" font-family="Arial" font-size="9" font-weight="bold" font-style="normal" x="313.99997" y="70.600006" svgjs:data="{&quot;leading&quot;:&quot;1.3&quot;}">G</text><text id="id252fa02-7825-4334-8a66-14fa22ed7ef1" font-family="Arial" font-size="9" font-weight="bold" font-style="normal" x="295.999952" y="70.600008" svgjs:data="{&quot;leading&quot;:&quot;1.3&quot;}">G</text><text id="i93566b43-6804-4cbf-9d4d-3e187eb7c463" font-family="Arial" font-size="9" font-weight="bold" font-style="normal" x="278.253834" y="70.600003" svgjs:data="{&quot;leading&quot;:&quot;1.3&quot;}">U</text><line x1="281.503876" y1="34.000012" x2="281.503876" y2="61.600012" id="ia38d71f0-7e18-411c-b931-b8868dd0cbd7" stroke="#000000" stroke-width="3" stroke-opacity="1" stroke-linecap="butt" stroke-dasharray="3 2" opacity="1"></line><line x1="299.503876" y1="36.000012" x2="299.503876" y2="59.600012" id="i889cb8f4-4a21-422a-b0dc-eb2dabc6b31d" stroke="#9b9b9b" stroke-width="2" stroke-opacity="1" stroke-linecap="butt" stroke-dasharray="none" opacity="1"></line><line x1="317.503876" y1="36.000012" x2="317.503876" y2="59.600012" id="i60d5a383-6695-4fc3-9e36-a756d153ffcd" stroke="#000000" stroke-width="0" stroke-opacity="1" stroke-linecap="butt" stroke-dasharray="none" opacity="1"></line><line x1="335.503876" y1="36.000012" x2="335.503876" y2="59.600012" id="i666cbb9b-611b-4b7e-b273-cd37246ba761" stroke="#000000" stroke-width="0" stroke-opacity="1" stroke-linecap="butt" stroke-dasharray="none" opacity="1"></line><line x1="353.503876" y1="36.000012" x2="353.503876" y2="59.600012" id="i0cfddcdd-c04a-4281-a30c-921b63a407cf" stroke="#000000" stroke-width="0" stroke-opacity="1" stroke-linecap="butt" stroke-dasharray="none" opacity="1"></line><line x1="371.503876" y1="34.000012" x2="371.503876" y2="61.600012" id="idf728efc-f679-42eb-9d2f-5bbf0f504afc" stroke="#000000" stroke-width="0" stroke-opacity="1" stroke-linecap="butt" stroke-dasharray="none" opacity="1"></line><path id="ib674748a-248e-4bb8-9d49-416c5cd3603a" stroke="#9b9b9b" stroke-width="1.25" stroke-opacity="1" fill="#ffffff" fill-opacity="1" d="M 299.503882 51.8 L 295.503882 43.8 L 299.503882 43.8 L 303.503882 43.8 Z " stroke-dasharray=""></path><circle id="i2df79002-59d6-42c1-a034-efe5c8953b48" r="6" stroke="#111dd6" stroke-width="1.25" stroke-opacity="1" fill="#ffffff" fill-opacity="1" cx="317.503882" cy="47.8"></circle><text id="i6ba68d17-c21f-4b4e-9433-21ad7350b39e" font-family="Arial" font-size="8" font-weight="700" fill="#111dd6" fill-opacity="1" x="313.726538" y="50.55" svgjs:data="{&quot;leading&quot;:&quot;1.3&quot;}"><tspan dy="0" x="313.726538" svgjs:data="{&quot;newLined&quot;:true}">W</tspan></text><path id="i77c40ad8-c53a-465f-9654-35c775229c18" stroke="#ff0000" stroke-width="1" stroke-opacity="1" fill="#ffffff" fill-opacity="1" d="M 330.503882 52.8 A 0 0 90 0 1 330.503882 52.8 L 330.503882 42.8 A 0 0 90 0 1 330.503882 42.8 L 340.503882 42.8 A 0 0 90 0 1 340.503882 42.8 L 340.503882 52.8 A 0 0 90 0 1 340.503882 52.8 Z " stroke-dasharray=""></path><circle id="ibf943c77-ae91-420f-8822-5582eb9fe728" r="4.25" stroke="#111dd6" stroke-width="0" stroke-opacity="1" fill="#f5a623" fill-opacity="1" cx="335.503882" cy="47.8"></circle><circle id="ic85fa619-b8ae-4c5c-a8c0-f5cafcf92e40" r="4.5" stroke="#4a4a4a" stroke-width="0" stroke-opacity="1" fill="#4a148c" fill-opacity="1" cx="371.503882" cy="47.8"></circle><path id="ied5db6ce-8c47-4083-8cb2-6b903554b037" stroke="#c56200" stroke-width="1" stroke-opacity="1" fill="#ffffff" fill-opacity="1" d="M 348.503882 52.8 A 0 0 90 0 1 348.503882 52.8 L 348.503882 42.8 A 0 0 90 0 1 348.503882 42.8 L 358.503882 42.8 A 0 0 90 0 1 358.503882 42.8 L 358.503882 52.8 A 0 0 90 0 1 358.503882 52.8 Z " stroke-dasharray=""></path><path id="ic69eee35-c467-4521-ae35-5da3ab4c3024" stroke="#c56200" stroke-width="1" stroke-opacity="1" fill="#ffffff" fill-opacity="1" d="M 353.503882 52.3 L 349.003882 43.3 L 353.503882 43.3 L 358.003882 43.3 Z " stroke-dasharray=""></path><path d="M 279.718287 75.398183 Q 272.503882 106.905469 265.735875 77.347728 " id="i9e844298-1555-4ff6-804d-26fdd5601e53" stroke="#000000" stroke-width="1" stroke-opacity="1" stroke-dasharray="2 1.5 " fill="none"></path><path id="ic7207d19-19de-4762-b78f-517bc1bf0150" stroke="#c56200" stroke-width="0" stroke-opacity="1" fill="#000000" fill-opacity="1" d="M 264.731478 72.96125 L 270.639364 80.841408 L 265.847475 77.835115 L 262.841181 82.627003 Z " stroke-dasharray=""></path><text id="ia03ccf3b-29be-4d70-aca5-d79338250172" font-family="Arial" font-size="8" font-weight="700" fill="#000000" fill-opacity="1" x="83.503885" y="8" text-anchor="middle" svgjs:data="{&quot;leading&quot;:&quot;1.3&quot;}">5</text><line x1="83.503883" y1="20.000012" x2="83.503885" y2="12.000012" id="if985fdb0-160d-475a-b688-acd58ac4d58a" stroke="#000000" stroke-width="1" stroke-opacity="1" stroke-dasharray="none"></line><text id="if5d74c53-117e-45a7-a15c-9bf8509fa6e2" font-family="Arial" font-size="8" font-weight="700" fill="#000000" fill-opacity="1" x="317.503886" y="8" text-anchor="middle" svgjs:data="{&quot;leading&quot;:&quot;1.3&quot;}">18</text><line x1="317.503876" y1="20.000012" x2="317.503878" y2="12.000012" id="ia79e9c31-a252-42db-b985-8f4e03a9fabc" stroke="#000000" stroke-width="1" stroke-opacity="1" stroke-dasharray="none"></line><text id="i53ef4fd2-42ac-4120-97f4-ff5b87f188d8" font-family="Arial" font-size="8" font-weight="700" fill="#000000" fill-opacity="1" x="191.503914" y="94" text-anchor="middle" svgjs:data="{&quot;leading&quot;:&quot;1.3&quot;}">32</text><line x1="191.503876" y1="75.599988" x2="191.503889" y2="83.599988" id="ifce0b739-ae92-4132-b912-ef812287fef8" stroke="#000000" stroke-width="1" stroke-opacity="1" stroke-dasharray="none"></line><text id="ib860029e-978a-4ea6-ac36-72e8dff4fed3" font-family="Arial" font-size="8" font-weight="700" fill="#000000" fill-opacity="1" x="47.503879" y="94" text-anchor="middle" svgjs:data="{&quot;leading&quot;:&quot;1.3&quot;}">40</text><line x1="47.503885" y1="75.599988" x2="47.503883" y2="83.599988" id="ia51b542d-808e-4000-9a93-e826ab56412b" stroke="#000000" stroke-width="1" stroke-opacity="1" stroke-dasharray="none"></line><path d="M 139.597237 20.27874 Q 146.170549 -3.966667 153.261729 20.320628 " id="i4026bad8-ad59-43b8-839c-a5d627df4fb6" stroke="#000000" stroke-width="1" stroke-opacity="1" stroke-dasharray="NaN " fill="none"></path><path id="i360559a4-382a-4365-94ea-3c7c57c516c4" stroke="#c56200" stroke-width="0" stroke-opacity="1" fill="#000000" fill-opacity="1" d="M 142.623545 20.581169 A 0 0 90 0 1 142.623545 20.581169 L 142.361875 21.546327 A 0 0 90 0 1 142.361875 21.546327 L 136.57093 19.97631 A 0 0 90 0 1 136.57093 19.97631 L 136.832599 19.011152 A 0 0 90 0 1 136.832599 19.011152 Z " stroke-dasharray=""></path><path id="i75dbde0b-139e-4b25-989c-47d250733467" stroke="#c56200" stroke-width="0" stroke-opacity="1" fill="#000000" fill-opacity="1" d="M 150.5221 21.641396 A 0 0 90 0 1 150.5221 21.641396 L 150.24183 20.681475 A 0 0 90 0 1 150.24183 20.681475 L 156.001359 18.99986 A 0 0 90 0 1 156.001359 18.99986 L 156.281628 19.959782 A 0 0 90 0 1 156.281628 19.959782 Z " stroke-dasharray=""></path></svg>