<svg width="96" height="96" xmlns="http://www.w3.org/2000/svg" xmlns:xlink="http://www.w3.org/1999/xlink" overflow="hidden"><defs><clipPath id="clip0"><rect x="778" y="303" width="96" height="96"/></clipPath></defs><g clip-path="url(#clip0)" transform="translate(-778 -303)"><path d="M806.9 340 857 340 857 335C857 332.8 855.2 331 853 331L823 331 812 323.7C811.3 323.3 810.6 323 809.8 323L791 323C788.8 323 787 324.8 787 327L787 376C787 376.2 799.9 344.7 799.9 344.7 801.1 341.9 803.8 340 806.9 340Z" fill="#6DA2F7"/><path d="M865 348C865 345.9 863.5 344.2 861.4 344L806.9 344C805.4 344 804.1 344.9 803.5 346.2L790 379 851 379 864.6 349.8C864.9 349.2 865 348.6 865 348L865 348Z" fill="#6DA2F7"/></g></svg>