<svg width="96" height="96" xmlns="http://www.w3.org/2000/svg" xmlns:xlink="http://www.w3.org/1999/xlink" overflow="hidden"><defs><clipPath id="clip0"><rect x="592" y="312" width="96" height="96"/></clipPath></defs><g clip-path="url(#clip0)" transform="translate(-592 -312)"><path d="M620.9 349 671 349 671 344C671 341.8 669.2 340 667 340L637 340 626 332.7C625.3 332.3 624.6 332 623.8 332L605 332C602.8 332 601 333.8 601 336L601 385C601 385.2 613.9 353.7 613.9 353.7 615.1 350.9 617.8 349 620.9 349Z" fill="#639FF7"/><path d="M679 357C679 354.9 677.5 353.2 675.4 353L620.9 353C619.4 353 618.1 353.9 617.5 355.2L604 388 665 388 678.6 358.8C678.9 358.2 679 357.6 679 357L679 357Z" fill="#639FF7"/></g></svg>